<svg xmlns="http://www.w3.org/2000/svg" width="900" height="350" viewBox="0 0 900 350"><style>text{font-family:Microsoft YaHei,Arial,sans-serif;fill:#183447}.s{font-size:16px;fill:#5e7484}.b{font-size:21px;font-weight:700}.n{font-size:18px;fill:white;font-weight:700}</style><rect width="900" height="350" rx="18" fill="#edf4f7"/><rect x="25" y="25" width="850" height="304" rx="10" fill="#ffffff" stroke="#d8e4eb"/><rect x="25" y="25" width="850" height="40" rx="10" fill="#dce9ef" stroke="#d8e4eb"/><text x="47" y="52" class="b" style="font-size:19px">FlClash · Windows 操作位置示意</text><rect x="46" y="82" width="148" height="227" rx="10" fill="#f5f8fa" stroke="#d8e4eb"/><text x="67" y="116" class="s">仪表盘</text><text x="67" y="160" class="s">代理</text><rect x="58" y="179" width="122" height="42" rx="10" fill="#ccebe7" stroke="#147d88"/><text x="74" y="206" class="b">配置</text><text x="67" y="257" class="s">工具</text><text x="223" y="111" class="b" style="font-size:25px">配置</text><rect x="759" y="84" width="78" height="38" rx="10" fill="#ccebe7" stroke="#147d88"/><text x="778" y="111" class="s" style="font-size:16px">+ 添加</text><rect x="239" y="138" width="586" height="155" rx="10" fill="#ffffff" stroke="#d8e4eb"/><text x="263" y="172" class="b" style="font-size:21px">从 URL 导入</text><text x="263" y="205" class="s">名称（如有）：Luomo</text><rect x="263" y="220" width="443" height="43" rx="10" fill="#f0faf9" stroke="#d8e4eb"/><text x="278" y="248" class="s" style="font-size:18px">粘贴自己的完整 Mihomo 订阅链接</text><rect x="723" y="220" width="76" height="43" rx="10" fill="#147d88" stroke="#147d88"/><text x="740" y="248" style="fill:white;font-size:18px">提交</text></svg>